<?xml version="1.0" encoding="utf-8"?>
<!-- Generator: Adobe Illustrator 15.1.0, SVG Export Plug-In . SVG Version: 6.00 Build 0)  -->
<!DOCTYPE svg PUBLIC "-//W3C//DTD SVG 1.1//EN" "http://www.w3.org/Graphics/SVG/1.1/DTD/svg11.dtd">
<svg version="1.1" id="圖層_1" xmlns="http://www.w3.org/2000/svg" xmlns:xlink="http://www.w3.org/1999/xlink" x="0px" y="0px"
	 width="419.992px" height="341.089px" viewBox="0 0 419.992 341.089" enable-background="new 0 0 419.992 341.089"
	 xml:space="preserve">
<g>
	<path fill="#FFFFFF" d="M81.212,313.27l26.399,27.819l95.993-91.146l-27.85-26.43L81.212,313.27z"/>
	<path fill="#FFFFFF" d="M403.17,34.029C376.23,5.654,325.995,9.606,293.931,40.05c-19.498,18.518-28.004,44.021-28.066,65.395
		c-0.062,18.788-1.574,31.709-16.147,47.85l-19.097,18.147l27.85,26.43l17.661-16.766c16.858-13.725,29.857-14.573,48.599-13.647
		c21.351,1.049,47.286-6.129,66.784-24.647C423.563,112.376,430.124,62.412,403.17,34.029z"/>
	<path fill="#FFFFFF" d="M180.076,116.452c1.837-20.1,0.88-34.226-28.329-61.751c0,0-33.469-31.779-52.396-49.756
		C83.527-10.077,61.05,12.493,77.244,27.869l54.897,52.103c3.504,3.334,3.643,8.869,0.324,12.374l-1.621,1.698
		c-3.319,3.504-8.877,3.643-12.366,0.309L63.334,42.018c-9.046-8.599-17.537-5.079-23.064,0.756
		c-5.542,5.843-8.614,14.489,0.432,23.087l55.145,52.342c3.504,3.327,3.628,8.869,0.309,12.366l-1.605,1.69
		c-3.334,3.52-8.877,3.659-12.381,0.34L27.303,80.481c-16.21-15.376-37.576,8.229-21.737,23.242
		c18.927,17.993,52.396,49.772,52.396,49.772c28.992,27.75,43.149,27.966,63.125,25.079c16.086-2.331,27.788-6.252,45.913,10.961
		l159.613,151.555l26.398-27.804L193.399,161.731C175.26,144.518,178.594,132.631,180.076,116.452z"/>
</g>
</svg>
